<mxfile host="app.diagrams.net" agent="Mozilla/5.0 (Windows NT 10.0; Win64; x64) AppleWebKit/537.36 (KHTML, like Gecko) Chrome/131.0.0.0 Safari/537.36 Edg/131.0.0.0" version="26.0.5">
  <diagram id="FtNZVo8HpWdLZc7ROnFi" name="Page-1">
    <mxGraphModel dx="2295" dy="1369" grid="0" gridSize="10" guides="1" tooltips="1" connect="1" arrows="1" fold="1" page="0" pageScale="1" pageWidth="850" pageHeight="1100" math="0" shadow="0">
      <root>
        <mxCell id="0" />
        <mxCell id="1" parent="0" />
        <mxCell id="U9paoMjQYV87YCuNHLcW-19" style="edgeStyle=orthogonalEdgeStyle;rounded=0;orthogonalLoop=1;jettySize=auto;html=1;" edge="1" parent="1" source="U9paoMjQYV87YCuNHLcW-3" target="U9paoMjQYV87YCuNHLcW-4">
          <mxGeometry relative="1" as="geometry" />
        </mxCell>
        <object label="Utilizator" id="U9paoMjQYV87YCuNHLcW-3">
          <mxCell style="shape=umlActor;verticalLabelPosition=bottom;verticalAlign=top;html=1;" vertex="1" parent="1">
            <mxGeometry x="212" y="-9" width="40" height="81" as="geometry" />
          </mxCell>
        </object>
        <mxCell id="U9paoMjQYV87YCuNHLcW-4" value="Autentificare" style="ellipse;whiteSpace=wrap;html=1;fontFamily=Comic Sans MS;fontStyle=0" vertex="1" parent="1">
          <mxGeometry x="497" y="121" width="140" height="92" as="geometry" />
        </mxCell>
        <mxCell id="U9paoMjQYV87YCuNHLcW-5" value="Vizualizare produse magazin" style="ellipse;whiteSpace=wrap;html=1;fontStyle=0;fontFamily=Comic Sans MS;" vertex="1" parent="1">
          <mxGeometry x="579" y="534" width="140" height="92" as="geometry" />
        </mxCell>
        <mxCell id="U9paoMjQYV87YCuNHLcW-6" value="Vizualizare pagină Contact" style="ellipse;whiteSpace=wrap;html=1;fontStyle=0;fontFamily=Comic Sans MS;" vertex="1" parent="1">
          <mxGeometry x="771" y="534" width="140" height="92" as="geometry" />
        </mxCell>
        <mxCell id="U9paoMjQYV87YCuNHLcW-7" value="Trimitere mesaje" style="ellipse;whiteSpace=wrap;html=1;fontStyle=0;fontFamily=Comic Sans MS;" vertex="1" parent="1">
          <mxGeometry x="787" y="735" width="140" height="92" as="geometry" />
        </mxCell>
        <mxCell id="U9paoMjQYV87YCuNHLcW-8" value="Vizualizare pagină principală" style="ellipse;whiteSpace=wrap;html=1;fontFamily=Comic Sans MS;fontStyle=0" vertex="1" parent="1">
          <mxGeometry x="497" y="316" width="140" height="92" as="geometry" />
        </mxCell>
        <mxCell id="U9paoMjQYV87YCuNHLcW-9" value="Figura 3.2 Diagrama cazurilor de utilizare pentru utilizator" style="text;html=1;align=center;verticalAlign=middle;whiteSpace=wrap;rounded=0;fontSize=20;" vertex="1" parent="1">
          <mxGeometry x="265" y="952" width="567" height="30" as="geometry" />
        </mxCell>
        <mxCell id="U9paoMjQYV87YCuNHLcW-10" value="Vizualizare pagini Companii, Individual, Lumea copiilor, Despre noi" style="ellipse;whiteSpace=wrap;html=1;fontStyle=0;fontFamily=Comic Sans MS;" vertex="1" parent="1">
          <mxGeometry x="389.5" y="537" width="140" height="92" as="geometry" />
        </mxCell>
        <mxCell id="U9paoMjQYV87YCuNHLcW-11" value="Vizualizare pagini Facebook, Instagram, Termeni și Condiții, Politici, Imprint" style="ellipse;whiteSpace=wrap;html=1;fontStyle=0;fontFamily=Comic Sans MS;" vertex="1" parent="1">
          <mxGeometry x="184" y="537" width="140" height="92" as="geometry" />
        </mxCell>
        <mxCell id="U9paoMjQYV87YCuNHLcW-14" value="" style="endArrow=none;html=1;rounded=0;entryX=0.5;entryY=1;entryDx=0;entryDy=0;exitX=0.5;exitY=0;exitDx=0;exitDy=0;" edge="1" parent="1" source="U9paoMjQYV87YCuNHLcW-11" target="U9paoMjQYV87YCuNHLcW-8">
          <mxGeometry width="50" height="50" relative="1" as="geometry">
            <mxPoint x="284" y="443" as="sourcePoint" />
            <mxPoint x="334" y="393" as="targetPoint" />
          </mxGeometry>
        </mxCell>
        <mxCell id="U9paoMjQYV87YCuNHLcW-15" value="" style="endArrow=none;html=1;rounded=0;entryX=0.5;entryY=1;entryDx=0;entryDy=0;exitX=0.5;exitY=0;exitDx=0;exitDy=0;" edge="1" parent="1" source="U9paoMjQYV87YCuNHLcW-10" target="U9paoMjQYV87YCuNHLcW-8">
          <mxGeometry width="50" height="50" relative="1" as="geometry">
            <mxPoint x="463" y="459" as="sourcePoint" />
            <mxPoint x="513" y="409" as="targetPoint" />
          </mxGeometry>
        </mxCell>
        <mxCell id="U9paoMjQYV87YCuNHLcW-16" value="" style="endArrow=none;html=1;rounded=0;exitX=0.5;exitY=0;exitDx=0;exitDy=0;" edge="1" parent="1" source="U9paoMjQYV87YCuNHLcW-6">
          <mxGeometry width="50" height="50" relative="1" as="geometry">
            <mxPoint x="463" y="459" as="sourcePoint" />
            <mxPoint x="572" y="409" as="targetPoint" />
          </mxGeometry>
        </mxCell>
        <mxCell id="U9paoMjQYV87YCuNHLcW-17" value="" style="endArrow=none;html=1;rounded=0;exitX=0.5;exitY=0;exitDx=0;exitDy=0;entryX=0.5;entryY=1;entryDx=0;entryDy=0;" edge="1" parent="1" source="U9paoMjQYV87YCuNHLcW-5" target="U9paoMjQYV87YCuNHLcW-8">
          <mxGeometry width="50" height="50" relative="1" as="geometry">
            <mxPoint x="463" y="459" as="sourcePoint" />
            <mxPoint x="641" y="351" as="targetPoint" />
          </mxGeometry>
        </mxCell>
        <mxCell id="U9paoMjQYV87YCuNHLcW-18" value="&amp;lt;&amp;lt;include&amp;gt;&amp;gt;" style="endArrow=open;endSize=12;dashed=1;html=1;rounded=0;" edge="1" parent="1">
          <mxGeometry width="160" relative="1" as="geometry">
            <mxPoint x="856" y="629" as="sourcePoint" />
            <mxPoint x="858" y="735" as="targetPoint" />
          </mxGeometry>
        </mxCell>
        <mxCell id="U9paoMjQYV87YCuNHLcW-20" style="edgeStyle=orthogonalEdgeStyle;rounded=0;orthogonalLoop=1;jettySize=auto;html=1;" edge="1" parent="1" source="U9paoMjQYV87YCuNHLcW-4">
          <mxGeometry relative="1" as="geometry">
            <mxPoint x="567" y="314" as="targetPoint" />
          </mxGeometry>
        </mxCell>
        <mxCell id="U9paoMjQYV87YCuNHLcW-21" value="Vizualizare produse magazin" style="ellipse;whiteSpace=wrap;html=1;fontStyle=0;fontFamily=Comic Sans MS;" vertex="1" parent="1">
          <mxGeometry x="579" y="731" width="140" height="92" as="geometry" />
        </mxCell>
        <mxCell id="U9paoMjQYV87YCuNHLcW-22" value="&amp;lt;&amp;lt;include&amp;gt;&amp;gt;" style="endArrow=open;endSize=12;dashed=1;html=1;rounded=0;exitX=0.5;exitY=1;exitDx=0;exitDy=0;entryX=0.5;entryY=0;entryDx=0;entryDy=0;" edge="1" parent="1" source="U9paoMjQYV87YCuNHLcW-5" target="U9paoMjQYV87YCuNHLcW-21">
          <mxGeometry x="-0.0037" width="160" relative="1" as="geometry">
            <mxPoint x="564" y="678" as="sourcePoint" />
            <mxPoint x="724" y="678" as="targetPoint" />
            <mxPoint as="offset" />
          </mxGeometry>
        </mxCell>
        <mxCell id="U9paoMjQYV87YCuNHLcW-23" value="Adăugare review" style="ellipse;whiteSpace=wrap;html=1;fontStyle=0;fontFamily=Comic Sans MS;" vertex="1" parent="1">
          <mxGeometry x="-76" y="370" width="140" height="92" as="geometry" />
        </mxCell>
        <mxCell id="U9paoMjQYV87YCuNHLcW-25" value="&amp;lt;&amp;lt;include" style="endArrow=open;endSize=12;dashed=1;html=1;rounded=0;exitX=0;exitY=0.5;exitDx=0;exitDy=0;entryX=1;entryY=0.5;entryDx=0;entryDy=0;" edge="1" parent="1" source="U9paoMjQYV87YCuNHLcW-8" target="U9paoMjQYV87YCuNHLcW-23">
          <mxGeometry width="160" relative="1" as="geometry">
            <mxPoint x="218" y="451" as="sourcePoint" />
            <mxPoint x="378" y="451" as="targetPoint" />
          </mxGeometry>
        </mxCell>
        <mxCell id="U9paoMjQYV87YCuNHLcW-26" value="Vizualizare rezervări" style="ellipse;whiteSpace=wrap;html=1;fontStyle=0;fontFamily=Comic Sans MS;" vertex="1" parent="1">
          <mxGeometry x="986" y="534" width="140" height="92" as="geometry" />
        </mxCell>
        <mxCell id="U9paoMjQYV87YCuNHLcW-29" value="" style="endArrow=none;html=1;rounded=0;entryX=0.421;entryY=0;entryDx=0;entryDy=0;entryPerimeter=0;" edge="1" parent="1" target="U9paoMjQYV87YCuNHLcW-26">
          <mxGeometry width="50" height="50" relative="1" as="geometry">
            <mxPoint x="567" y="409" as="sourcePoint" />
            <mxPoint x="714" y="426" as="targetPoint" />
          </mxGeometry>
        </mxCell>
        <mxCell id="U9paoMjQYV87YCuNHLcW-30" value="Adăugare rezervare" style="ellipse;whiteSpace=wrap;html=1;fontStyle=0;fontFamily=Comic Sans MS;" vertex="1" parent="1">
          <mxGeometry x="986" y="735" width="140" height="92" as="geometry" />
        </mxCell>
        <mxCell id="U9paoMjQYV87YCuNHLcW-35" value="&amp;lt;&amp;lt;include&amp;gt;&amp;gt;" style="endArrow=open;endSize=12;dashed=1;html=1;rounded=0;exitX=0.5;exitY=1;exitDx=0;exitDy=0;" edge="1" parent="1" source="U9paoMjQYV87YCuNHLcW-26" target="U9paoMjQYV87YCuNHLcW-30">
          <mxGeometry width="160" relative="1" as="geometry">
            <mxPoint x="1094" y="648" as="sourcePoint" />
            <mxPoint x="1254" y="648" as="targetPoint" />
          </mxGeometry>
        </mxCell>
      </root>
    </mxGraphModel>
  </diagram>
</mxfile>
